<?xml version="1.0" encoding="utf-8"?>
<!DOCTYPE svg PUBLIC "-//W3C//DTD SVG 1.1//EN" "http://www.w3.org/Graphics/SVG/1.1/DTD/svg11.dtd">
<svg version="1.1" xmlns="http://www.w3.org/2000/svg" xmlns:xlink="http://www.w3.org/1999/xlink" x="0px" y="0px" viewBox="0 0 1000 1000" enable-background="new 0 0 1000 1000" xml:space="preserve">
  <style type="text/css" >
    <![CDATA[
    .aboutteam {
      stroke: none;
      fill:   #fff;
    }
    ]]>
  </style>
<g class="aboutteam" ><g transform="translate(0.000000,511.000000) scale(0.100000,-0.100000)"><path d="M4679.1,2798.2c-425-103.2-795.9-432.3-948.2-842.5c-73.7-199-98.3-537.9-54-746.7c103.2-501.1,533.1-928.5,1044-1036.6c216.2-44.2,324.3-44.2,540.4,0c496.2,103.2,908.9,488.8,1029.2,958c51.6,191.6,51.6,555.2,0,727.1C6086.6,2547.7,5369.3,2967.7,4679.1,2798.2z"/><path d="M1859.1,2196.4c-272.7-54-555.2-282.5-678-550.2c-213.7-466.7,4.9-1039.1,479-1262.6c120.4-56.5,167-63.9,395.5-63.9s275.1,7.4,395.5,63.9c592,277.6,746.8,1039.1,304.6,1515.6C2517.4,2159.5,2200.5,2262.7,1859.1,2196.4z"/><path d="M7754.5,2198.8c-277.6-58.9-557.6-287.4-678-552.7c-213.7-466.7,4.9-1039.1,479-1262.6c120.4-56.5,167-63.9,395.5-63.9c228.4,0,275.1,7.4,395.5,63.9c515.8,243.2,714.8,872,429.9,1358.4c-90.9,154.8-312,346.4-469.2,405.3C8147.6,2206.2,7906.8,2228.3,7754.5,2198.8z"/><path d="M1220.4,162.5C837.2,7.7,500.7-156.9,427-228.1c-98.3-93.3-120.4-142.5-238.3-565c-117.9-427.4-117.9-525.7-2.5-685.4c130.2-179.3,140-181.8,1071-174.4l827.8,7.4l83.5,294.8c201.4,700.1,196.5,687.8,356.2,857.3c144.9,157.2,316.9,257.9,665.7,397.9c66.3,24.6,117.9,54,117.9,61.4c0,17.2-557.6,257.9-646,280c-39.3,12.3-95.8-9.8-186.7-71.2c-302.1-203.9-567.4-201.4-854.8,7.4c-59,41.8-117.9,76.2-135.1,76.2C1468.5,255.8,1348.2,214.1,1220.4,162.5z"/><path d="M7079,145.3C6931.6,83.9,6779.3,20,6742.5,5.3c-39.3-14.7-68.8-34.4-68.8-41.8s144.9-78.6,319.3-157.2c265.3-120.4,339-167.1,442.2-275.1c152.3-162.1,191.6-248.1,331.6-734.5c63.9-216.2,117.9-407.8,122.8-422.5c7.4-24.6,201.4-31.9,852.4-31.9c955.5,0,948.2,0,1088.2,194.1c100.7,144.9,95.8,272.7-36.8,734.5c-142.5,501.1-149.8,511-655.9,734.5c-213.7,95.8-442.2,191.6-510.9,216.2l-122.8,44.2l-132.7-90.9c-302.1-203.9-567.4-201.4-854.8,7.4c-58.9,41.8-117.9,76.2-135.1,76.2C7363.9,255.8,7228.8,206.7,7079,145.3z"/><path d="M3885.7-24.2c-481.5-194-1044-449.5-1130-513.4c-149.8-115.5-208.8-238.3-361.1-768.9c-169.5-584.6-184.2-729.5-95.8-928.5c66.3-147.4,152.3-243.2,284.9-314.4l98.3-54l2279.6-7.4l2277.1-4.9l125.3,51.6c243.2,105.6,415.1,400.4,378.3,643.6c-19.6,130.2-86,380.7-213.7,803.3c-100.7,336.5-196.5,513.4-321.8,594.5c-76.2,51.6-906.4,420-1193.8,533l-240.7,93.3L5639.5,5.3c-452-329.2-879.4-324.2-1324,14.7L4205,103.5L3885.7-24.2z"/></g></g>
</svg>