<svg width="91" height="75" viewBox="0 0 91 75" fill="none" xmlns="http://www.w3.org/2000/svg">
<g filter="url(#filter0_i)">
<path d="M36.6321 0.450294C36.3063 0.589531 31.1402 5.61636 25.1124 11.6205L14.1751 22.5351L8.65959 22.6052C2.609 22.6752 2.58534 22.698 1.3987 24.2805C0.910034 24.9084 0.910034 25.165 0.910034 37.4518C0.910034 49.7386 0.910034 49.9952 1.3987 50.6231C2.58534 52.2056 2.609 52.2293 8.65959 52.2985L14.1751 52.3685L25.2289 63.3995C37.1672 75.3151 36.7713 74.9656 38.8425 74.5935C39.9363 74.3842 41.2167 73.2203 41.5188 72.1738C41.7053 71.5686 41.7517 60.6077 41.7053 36.9404C41.6353 2.6616 41.6353 2.56787 41.1466 1.93997C40.8909 1.59053 40.4022 1.07911 40.0764 0.846146C39.3548 0.310158 37.4929 0.100861 36.6321 0.450294Z" fill="white" fill-opacity="0.93"/>
<path d="M72.5398 5.33694C71.1666 6.17505 70.445 7.85035 70.8408 9.34002C71.0037 9.89877 71.7945 11.039 73.0749 12.4813C74.1451 13.7381 75.6584 15.6927 76.4264 16.833C83.7337 27.7475 84.6647 42.0127 78.847 53.8818C77.4511 56.7674 75.4491 59.6994 73.0758 62.3757C70.9346 64.8191 70.4459 65.8665 70.8417 67.216C71.3541 69.0542 72.6108 70.0325 74.449 70.0325C76.0078 70.0325 76.7067 69.5675 78.9872 66.9603C83.9676 61.3056 87.7368 53.6952 89.2038 46.4116C91.5771 34.729 89.1337 22.3721 82.5244 12.5514C80.6388 9.73587 77.4274 5.96574 76.3573 5.31419C75.3563 4.73179 73.5408 4.73179 72.5398 5.33694Z" fill="white" fill-opacity="0.93"/>
<path d="M62.0912 15.7865C60.5087 16.7411 59.8572 18.3463 60.3458 20.0216C60.5087 20.5567 61.2067 21.5805 61.9984 22.465C64.4882 25.2114 66.35 28.7249 67.2809 32.4723C67.8624 34.8692 67.816 40.4539 67.1645 42.8281C66.1635 46.5745 64.4645 49.6931 61.9283 52.5095C60.4851 54.1148 59.9973 55.3251 60.2294 56.6282C60.648 58.8386 63.4872 60.2591 65.4655 59.2344C66.3728 58.7458 68.7697 56.1395 70.0965 54.1384C76.9388 44.0384 76.9388 30.867 70.0965 20.7669C68.7697 18.7658 66.3728 16.1596 65.4655 15.6709C64.5582 15.2041 62.9521 15.2505 62.0912 15.7865Z" fill="white" fill-opacity="0.93"/>
<path d="M51.8746 26.1424C50.921 26.561 49.9427 27.7485 49.7571 28.7259C49.5241 29.9826 49.8271 31.0527 50.7581 32.1466C52.1777 33.8455 52.8056 35.4508 52.8056 37.4528C52.8056 39.4539 52.1768 41.06 50.7581 42.759C49.292 44.4807 49.3148 46.459 50.8045 47.9487C51.7582 48.9033 52.852 49.2291 54.2488 48.9724C55.5056 48.7395 57.5067 46.5518 58.6933 44.1322C59.6943 42.1074 60.3686 39.4074 60.3686 37.4528C60.3686 34.2878 58.8098 30.0991 56.785 27.7713C55.1561 25.9331 53.5736 25.3971 51.8746 26.1424Z" fill="white" fill-opacity="0.93"/>
</g>
<defs>
<filter id="filter0_i" x="0.910034" y="0.278442" width="89.1807" height="78.4427" filterUnits="userSpaceOnUse" color-interpolation-filters="sRGB">
<feFlood flood-opacity="0" result="BackgroundImageFix"/>
<feBlend mode="normal" in="SourceGraphic" in2="BackgroundImageFix" result="shape"/>
<feColorMatrix in="SourceAlpha" type="matrix" values="0 0 0 0 0 0 0 0 0 0 0 0 0 0 0 0 0 0 127 0" result="hardAlpha"/>
<feOffset dy="4"/>
<feGaussianBlur stdDeviation="2"/>
<feComposite in2="hardAlpha" operator="arithmetic" k2="-1" k3="1"/>
<feColorMatrix type="matrix" values="0 0 0 0 0 0 0 0 0 0 0 0 0 0 0 0 0 0 0.25 0"/>
<feBlend mode="normal" in2="shape" result="effect1_innerShadow"/>
</filter>
</defs>
</svg>
