<svg width="58" height="49" viewBox="0 0 58 49" fill="none" xmlns="http://www.w3.org/2000/svg">
<g filter="url(#filter0_d)">
<path d="M23.6742 0.0946198C23.4948 0.171303 20.6496 2.93988 17.3297 6.24674L11.3059 12.258L8.26814 12.2966C4.93572 12.3352 4.92269 12.3477 4.26914 13.2193C4 13.5651 4 13.7065 4 20.4735C4 27.2406 4 27.382 4.26914 27.7278C4.92269 28.5993 4.93572 28.6124 8.26814 28.6505L11.3059 28.6891L17.3938 34.7645C23.9689 41.3271 23.7509 41.1346 24.8916 40.9296C25.4941 40.8144 26.1992 40.1734 26.3656 39.597C26.4684 39.2637 26.4939 33.2268 26.4684 20.1919C26.4298 1.31251 26.4298 1.26089 26.1607 0.91507C26.0198 0.722614 25.7507 0.440941 25.5713 0.312637C25.1738 0.017437 24.1484 -0.0978394 23.6742 0.0946198Z" fill="#5c6bf5"/>
<path d="M43.4508 2.786C42.6945 3.2476 42.297 4.17029 42.5151 4.99074C42.6048 5.29847 43.0403 5.92646 43.7455 6.72085C44.3349 7.413 45.1684 8.48955 45.5914 9.11755C49.6159 15.1288 50.1287 22.9855 46.9245 29.5225C46.1557 31.1118 45.0531 32.7266 43.746 34.2006C42.5667 35.5463 42.2975 36.1232 42.5156 36.8665C42.7977 37.8789 43.4899 38.4177 44.5023 38.4177C45.3608 38.4177 45.7457 38.1616 47.0017 36.7256C49.7447 33.6112 51.8207 29.4198 52.6286 25.4083C53.9357 18.974 52.59 12.1683 48.9499 6.75944C47.9114 5.20876 46.1427 3.13233 45.5533 2.77348C45.002 2.45271 44.0021 2.45271 43.4508 2.786Z" fill="#5c6bf5"/>
<path d="M37.6962 8.54119C36.8246 9.06694 36.4658 9.95104 36.7349 10.8737C36.8246 11.1684 37.209 11.7323 37.6451 12.2194C39.0163 13.732 40.0418 15.6671 40.5545 17.731C40.8747 19.0512 40.8492 22.127 40.4903 23.4346C39.939 25.498 39.0033 27.2156 37.6065 28.7668C36.8116 29.6509 36.543 30.3174 36.6708 31.0351C36.9013 32.2525 38.465 33.0349 39.5546 32.4706C40.0543 32.2014 41.3744 30.766 42.1052 29.6639C45.8736 24.1012 45.8736 16.8469 42.1052 11.2842C41.3744 10.1821 40.0543 8.74668 39.5546 8.47754C39.0549 8.22043 38.1703 8.24599 37.6962 8.54119Z" fill="#5c6bf5"/>
<path d="M31.9068 14.0597C31.3816 14.2902 30.8428 14.9443 30.7405 15.4826C30.6122 16.1747 30.7791 16.7641 31.2918 17.3665C32.0737 18.3023 32.4195 19.1864 32.4195 20.289C32.4195 21.3911 32.0732 22.2757 31.2918 23.2114C30.4844 24.1597 30.497 25.2493 31.3174 26.0697C31.8427 26.5955 32.4451 26.7749 33.2144 26.6336C33.9066 26.5053 35.0087 25.3004 35.6623 23.9677C36.2136 22.8526 36.5849 21.3655 36.5849 20.289C36.5849 18.5458 35.7264 16.2389 34.6113 14.9568C33.7141 13.9444 32.8425 13.6492 31.9068 14.0597Z" fill="#5c6bf5"/>
</g>
<defs>
<filter id="filter0_d" x="0" y="0" width="57.1171" height="49" filterUnits="userSpaceOnUse" color-interpolation-filters="sRGB">
<feFlood flood-opacity="0" result="BackgroundImageFix"/>
<feColorMatrix in="SourceAlpha" type="matrix" values="0 0 0 0 0 0 0 0 0 0 0 0 0 0 0 0 0 0 127 0"/>
<feOffset dy="4"/>
<feGaussianBlur stdDeviation="2"/>
<feColorMatrix type="matrix" values="0 0 0 0 0 0 0 0 0 0 0 0 0 0 0 0 0 0 0.25 0"/>
<feBlend mode="normal" in2="BackgroundImageFix" result="effect1_dropShadow"/>
<feBlend mode="normal" in="SourceGraphic" in2="effect1_dropShadow" result="shape"/>
</filter>
</defs>
</svg>
