<?xml version="1.0" encoding="utf-8"?>
<!DOCTYPE svg PUBLIC "-//W3C//DTD SVG 1.1//EN" "http://www.w3.org/Graphics/SVG/1.1/DTD/svg11.dtd">
<svg version="1.1" xmlns="http://www.w3.org/2000/svg" xmlns:xlink="http://www.w3.org/1999/xlink" x="0px" y="0px" viewBox="0 0 1000 1000" enable-background="new 0 0 1000 1000" xml:space="preserve">
  <style type="text/css" >
    <![CDATA[
    .main {
      stroke: none;
      fill:   #fff;
    }
    ]]>
  </style>
<g class="main"><path d="M613.2,453.1c-6.1-14.8-15.2-28.4-26.6-39.7c-11.3-11.3-24.9-20.4-39.7-26.6c-14.8-6.1-30.8-9.3-46.9-9.3c-16,0-32.1,3.2-46.9,9.3c-14.8,6.1-28.4,15.2-39.7,26.6c-11.3,11.3-20.4,24.9-26.6,39.7c-6.1,14.8-9.3,30.8-9.3,46.9h0c0,16,3.2,32.1,9.3,46.9c6.1,14.8,15.2,28.4,26.6,39.7c11.3,11.3,24.9,20.4,39.7,26.6c14.8,6.1,30.8,9.3,46.9,9.3c16,0,32.1-3.2,46.9-9.3c14.8-6.1,28.4-15.2,39.7-26.6s20.4-24.9,26.6-39.7s9.3-30.8,9.3-46.9h0C622.5,484,619.3,467.9,613.2,453.1z"/><path d="M990,500c0-33.8-27.4-61.3-61.3-61.3h-67.4C854.9,400.9,842.9,365,826,332c-0.2-0.3-0.3-0.7-0.5-1c-0.1-0.2-0.2-0.3-0.3-0.5c-7.8-14.9-16.5-29.3-26.2-42.9l47.5-47.5c8.2-8.2,13.6-18.2,16.2-28.8c4.9-20.1-0.5-42.2-16.2-57.9c-0.2-0.2-0.4-0.4-0.6-0.5c-21.3-20.8-54-23-77.6-6.5c-3,2.1-5.8,4.4-8.4,7L712.4,201c-1.8-1.3-3.6-2.5-5.4-3.8c-42.9-29.4-92.3-49.5-145.7-58.5V71.3c0-31.7-24.1-57.8-55-60.9c-0.1,0-0.3,0-0.4,0c-1.9-0.2-3.9-0.3-5.8-0.3l0,0l0,0c-33.8,0-61.3,27.4-61.3,61.2v67.4c-55.7,9.4-107,30.9-151.2,62.3l-29.1-29.1l-18.3-18.3c-11.2-11.2-25.7-17.2-40.4-17.9c-8-0.4-16.1,0.8-23.8,3.6c-8.2,3-15.9,7.7-22.4,14.3c-23.9,23.9-23.9,62.7,0,86.6l25.8,25.8l21.6,21.6c-6.1,8.6-11.8,17.4-17.2,26.5c-22.1,37.7-37.6,79.7-45.1,124.6H71.2C37.4,438.7,10,466.2,10,500c0,0,0,0,0,0c0,0,0,0,0,0c0,33.8,27.4,61.3,61.3,61.3h67.4c6.4,37.9,18.4,73.7,35.3,106.7c0.2,0.3,0.3,0.7,0.5,1c0.1,0.2,0.2,0.3,0.3,0.5c7.7,14.9,16.5,29.3,26.2,42.9l-47.5,47.5c-8.2,8.2-13.6,18.2-16.2,28.7c-4.9,20.1,0.5,42.2,16.2,57.9c0.2,0.2,0.4,0.3,0.5,0.5c21.4,20.9,54.2,23,77.9,6.4c2.9-2,5.7-4.3,8.2-6.9l47.5-47.5c1.8,1.3,3.6,2.5,5.4,3.7c42.9,29.4,92.4,49.6,145.8,58.6v67.4c0,31.7,24.1,57.8,55,60.9c0.1,0,0.3,0,0.4,0c1.9,0.2,3.9,0.3,5.8,0.3l0,0l0,0c33.8,0,61.3-27.4,61.3-61.2v-67.4c55.7-9.4,107-30.9,151.2-62.3l29.3,29.3l18.1,18.1c11.2,11.2,25.7,17.2,40.4,17.9c8,0.4,16.1-0.8,23.8-3.6c8.2-3,15.9-7.7,22.4-14.3c23.9-23.9,23.9-62.7,0-86.6L820.7,734L799,712.4c6-8.5,11.7-17.3,17-26.3c22.2-37.8,37.7-79.9,45.3-124.9h67.4C962.6,561.3,990,533.8,990,500C990,500,990,500,990,500C990,500,990,500,990,500z M500,745c-135.3,0-245-109.7-245-245c0-43,11.1-83.4,30.5-118.5C327.3,306.1,407.7,255,500,255c135.3,0,245,109.7,245,245c0,42.3-10.7,82.1-29.6,116.8C673.9,693.2,593,745,500,745z"/></g>
</svg>