<?xml version="1.0" encoding="utf-8"?>
<!DOCTYPE svg PUBLIC "-//W3C//DTD SVG 1.1//EN" "http://www.w3.org/Graphics/SVG/1.1/DTD/svg11.dtd">
<svg version="1.1" xmlns="http://www.w3.org/2000/svg" xmlns:xlink="http://www.w3.org/1999/xlink" x="0px" y="0px" viewBox="0 0 1000 1000" enable-background="new 0 0 1000 1000" xml:space="preserve">
  <style type="text/css" >
    <![CDATA[
    .minigames {
      stroke: none;
      fill:   #fff;
    }
    ]]>
  </style>
<g class="minigames"><g transform="translate(0.000000,151.000000) scale(0.100000,-0.100000)"><path d="M1900.8-614.1c-498.5-54.1-954.5-243.4-1178.6-494.6c-158.4-177.8-154.6-170-258.9-684C227.5-2955.9,100-4037.9,100-4826.3c0-622.1,42.5-915.9,181.6-1221.1c131.4-286,231.9-340.1,618.3-336.2c371,0,691.7,112.1,1124.5,390.3c313,201,931.3,807.7,1174.8,1155.5l170,243.4H5000h1630.8l170.1-239.6c243.4-351.6,861.7-958.3,1174.7-1159.3c432.8-278.2,753.5-390.3,1124.6-390.3c386.4-3.8,486.9,50.2,618.3,336.2c139.1,305.3,181.6,599,181.6,1221.1c0,788.3-127.5,1870.3-363.3,3033.5c-104.3,514-100.5,506.2-258.9,684c-436.7,486.9-1634.6,668.5-2287.7,351.6c-135.3-65.7-332.4-224.1-533.3-425.1l-320.8-320.7H4988.4H3840.7l-189.4,216.4C3156.7-722.3,2662.1-533,1900.8-614.1z M2302.7-1908.7c278.2-115.9,436.7-355.5,436.7-664.7c0-525.5-544.9-861.7-1016.3-633.8c-332.3,158.4-486.9,541-359.4,873.3c73.4,181.6,320.8,429,463.7,456C2005.1-1843,2167.4-1854.6,2302.7-1908.7z M8377.4-1997.6c77.3-58,177.8-185.5,228-282.1c173.9-332.3,27.1-757.4-328.5-927.4c-471.4-228-1016.3,108.2-1016.3,633.8c0,193.2,92.7,425.1,220.3,537.2C7720.5-1819.8,8134-1800.5,8377.4-1997.6z"/></g></g>
</svg>