<?xml version="1.0" encoding="utf-8"?>
<!DOCTYPE svg PUBLIC "-//W3C//DTD SVG 1.1//EN" "http://www.w3.org/Graphics/SVG/1.1/DTD/svg11.dtd">
<svg version="1.1" xmlns="http://www.w3.org/2000/svg" xmlns:xlink="http://www.w3.org/1999/xlink" x="0px" y="0px" viewBox="0 0 1000 1000" enable-background="new 0 0 1000 1000" xml:space="preserve">
  <style type="text/css" >
    <![CDATA[
    .sprinter {
      stroke: none;
      fill:   #AF0001;
    }
    ]]>
  </style>
<g class="sprinter" ><g transform="translate(0.000000,404.000000) scale(0.100000,-0.100000)"><path d="M7798.3,2860.8c-510.4-265-535-1020.9-39.3-1310.5c211-127.6,593.9-122.7,770.6,4.9c328.8,245.4,436.8,628.3,270,976.7C8632.7,2885.3,8151.7,3042.4,7798.3,2860.8z"/><path d="M5000.6,2306.1c-495.7-88.3-966.9-324-1585.4-795.2c-211.1-162-539.9-387.8-736.2-500.6c-196.3-112.9-353.4-240.5-353.4-274.9c0-108,299.4-142.3,633.2-73.6c171.8,34.4,535,176.7,805,314.1c692.1,348.5,1158.4,495.7,1551,495.7c176.7,0,323.9-19.6,323.9-39.3c0-49.1-245.4-279.8-520.3-490.8c-112.9-83.5-431.9-274.9-711.7-427C3626.3,97.4,3493.7-69.5,3155.1-1046.2C2703.5-2342,2202.9-2994.9,882.5-4020.7C175.8-4575.3,67.8-4678.3,107-4786.4c44.2-107.9,230.7-93.2,662.6,54c824.6,274.9,1698.3,824.6,2311.8,1457.8c402.5,412.3,692.1,824.6,991.5,1423.4c230.7,456.5,245.4,476.1,377.9,446.6c888.4-216,1374.3-382.8,1418.5-500.6c19.7-39.3-19.7-166.9-78.5-279.8c-103.1-196.3-260.2-407.3-1320.3-1806.2c-368.1-485.9-485.9-721.6-348.5-721.6c108,0,579.2,260.2,908,505.6c510.4,373,1438.1,1330.1,1649.2,1698.3c191.4,333.8,265.1,638.1,211,878.6c-73.6,343.6-692.1,819.7-1286,996.4c-117.8,34.3-211,73.6-211,88.3c0,14.7,147.3,112.9,319,216c176.7,103.1,461.4,294.5,643,427c176.7,137.4,333.8,245.4,353.4,245.4c19.6,0,83.4-108,147.2-240.5c122.7-270,333.8-505.6,569.4-633.2c245.4-132.5,1035.6-117.8,1477.4,34.3c417.2,142.3,868.8,363.2,952.2,466.3c132.5,162,19.6,181.6-976.8,166.9C7690.3,117,7734.5,97.4,7528.3,823.8c-73.6,260.2-171.8,554.7-220.9,647.9c-206.2,402.5-697,692.1-1364.5,814.8C5525.8,2360.1,5329.4,2365,5000.6,2306.1z"/></g></g>
</svg>