<?xml version="1.0" encoding="utf-8"?>
<!DOCTYPE svg PUBLIC "-//W3C//DTD SVG 1.1//EN" "http://www.w3.org/Graphics/SVG/1.1/DTD/svg11.dtd">
<svg version="1.1" xmlns="http://www.w3.org/2000/svg" xmlns:xlink="http://www.w3.org/1999/xlink" x="0px" y="0px" viewBox="0 0 1000 1000" enable-background="new 0 0 1000 1000" xml:space="preserve">
  <style type="text/css" >
    <![CDATA[
    .statistics {
      stroke: none;
      fill:   #fff;
    }
    ]]>
  </style>
<g class="statistics"><path d="M959.4,959.3H40.6c-16.9,0-30.6-13.7-30.6-30.6c0-16.9,13.7-30.6,30.6-30.6h918.7c16.9,0,30.6,13.7,30.6,30.6C990,945.6,976.3,959.3,959.4,959.3L959.4,959.3L959.4,959.3z"/><path d="M193.8,469.3H71.3c-33.8,0-61.3,27.5-61.3,61.3v245c0,33.8,27.5,61.3,61.3,61.3h122.5c33.8,0,61.3-27.5,61.3-61.3v-245C255,496.8,227.5,469.3,193.8,469.3L193.8,469.3L193.8,469.3L193.8,469.3z"/><path d="M561.3,40.7H438.8c-33.8,0-61.2,27.5-61.2,61.2v673.8c0,33.8,27.5,61.3,61.2,61.3h122.5c33.8,0,61.3-27.5,61.3-61.3V102C622.5,68.2,595.1,40.7,561.3,40.7L561.3,40.7L561.3,40.7L561.3,40.7z"/><path d="M928.7,224.3H806.3c-33.8,0-61.3,27.5-61.3,61.3v490c0,33.8,27.5,61.3,61.3,61.3h122.5c33.8,0,61.3-27.5,61.3-61.3v-490C990,251.7,962.5,224.3,928.7,224.3L928.7,224.3L928.7,224.3L928.7,224.3z"/></g>
</svg>