<?xml version="1.0" encoding="utf-8"?>
<!DOCTYPE svg PUBLIC "-//W3C//DTD SVG 1.1//EN" "http://www.w3.org/Graphics/SVG/1.1/DTD/svg11.dtd">
<svg version="1.1" xmlns="http://www.w3.org/2000/svg" xmlns:xlink="http://www.w3.org/1999/xlink" x="0px" y="0px" viewBox="0 0 1000 1000" enable-background="new 0 0 1000 1000" xml:space="preserve">
  <style type="text/css" >
    <![CDATA[
    .vocabulary {
      stroke: none;
      fill:   #fff;
    }
    ]]>
  </style>
<g class="vocabulary"><g transform="translate(0.000000,511.000000) scale(0.100000,-0.100000)"><path d="M1999.9,4983.2c-214.5-48.2-481.6-188.3-648-345.9c-227.7-212.4-367.8-446.6-433.5-726.8c-32.8-140.1-37.2-472.9-30.6-3864l6.6-3710.7l63.5-164.2c140.1-365.6,396.2-652.4,722.4-810c337.1-164.2,116-155.4,3761.1-148.9l3268.5,6.6l89.7,48.2c118.2,63.5,256.1,221.1,289,330.6c19.7,63.5,26.3,1020.2,26.3,3809.2v3726l-3454.6,4.4l-3456.8,6.6l-105.1,65.7c-304.3,188.3-269.3,628.3,59.1,766.2c72.2,28.5,466.3,32.8,3520.2,32.8h3437v264.9c0,146.7-10.9,304.3-26.3,352.5c-32.9,109.5-170.8,267.1-289,330.6l-89.7,48.2l-3283.8,4.4C2680.7,5011.7,2118.1,5007.3,1999.9,4983.2z M4099.4,1016.4c32.8-35,85.4-105.1,116-159.8c32.8-54.7,286.8-669.9,564.8-1368.3c280.2-698.4,547.3-1346.4,597.6-1440.5c96.3-188.3,129.2-216.7,330.6-299.9c159.8-65.7,181.7-127,56.9-168.6c-102.9-35-1429.5-39.4-1567.5-4.4c-172.9,43.8-157.6,83.2,70.1,164.2c280.2,102.9,302.1,168.6,168.6,536.4c-78.8,218.9-81,223.3-179.5,267.1c-151.1,65.7-464.1,91.9-790.3,63.5c-151.1-13.1-289-28.5-308.7-37.2c-48.2-17.5-177.3-365.6-190.5-505.7c-15.3-175.1,26.3-232,234.2-317.4c190.5-76.6,223.3-113.8,148.9-155.4c-72.2-41.6-1131.8-39.4-1182.2,2.2c-21.9,15.3-37.2,37.2-37.2,48.2c0,8.8,61.3,50.3,137.9,89.8c170.8,91.9,291.2,210.2,380.9,378.7c37.2,72.2,302.1,691.8,584.5,1374.8C3519.2,169.2,3771,766.8,3797.2,815c48.2,96.3,188.3,260.5,221.1,260.5C4029.3,1075.5,4066.5,1049.2,4099.4,1016.4z M7512.3-185.5c153.2-39.4,269.3-100.7,354.6-188.3c137.9-137.9,140.1-153.2,153.2-950.1c8.8-584.5,17.5-731.2,41.6-761.8c26.3-32.8,54.7-35,159.8-24.1c144.5,17.5,172.9-8.8,127-118.2c-63.5-155.4-269.3-267.1-525.4-282.4c-172.9-8.8-232,6.6-394.1,109.5c-111.6,72.2-256.1,63.5-459.7-26.3c-129.2-56.9-201.4-74.4-345.9-83.2c-168.6-8.8-190.5-4.4-321.8,59.1c-78.8,39.4-166.4,102.9-197,142.3c-129.2,168.6-155.4,407.2-67.9,597.7c118.2,251.8,383.1,418.1,1020.2,643.6c100.7,37.2,201.4,81,223.3,98.5c52.5,48.2,67.9,175.1,41.6,337.1C7291.2-446,7219-367.2,7061.4-351.9c-186.1,17.5-251.8-30.7-365.6-269.3c-56.9-122.6-122.6-225.5-166.4-262.7c-63.5-52.5-85.4-59.1-190.5-50.4c-155.4,13.1-245.2,96.3-260.5,243c-32.8,282.4,247.4,483.8,748.7,538.5C7037.3-128.6,7352.5-143.9,7512.3-185.5z"/><path d="M3657.1-198.6c-54.7-54.7-278-578-278-652.4c0-87.6,61.3-192.7,135.7-232.1c102.9-54.7,334.9-52.5,426.9,2.2c74.4,43.8,137.9,148.9,137.9,227.7c0,26.3-46,170.8-100.7,319.6C3841-165.8,3766.6-89.2,3657.1-198.6z"/><path d="M7002.2-1345.8c-236.4-122.6-337.1-402.8-232.1-637.1c52.5-113.8,111.6-146.7,243-133.5c223.3,21.9,326.2,172.9,328.4,472.9c0,188.3-32.8,293.4-98.5,319.6C7179.6-1299.8,7070.1-1310.7,7002.2-1345.8z"/></g></g>
</svg>